<svg xmlns="http://www.w3.org/2000/svg" width="1024" height="820" viewBox="0 0 1024 820">
<defs>
  <pattern id="screentone" width="8" height="8" patternUnits="userSpaceOnUse">
    <circle cx="4" cy="4" r="1.3" fill="#141414"/></pattern>
  <pattern id="screentone-dark" width="6" height="6" patternUnits="userSpaceOnUse">
    <circle cx="3" cy="3" r="2.1" fill="#141414"/></pattern>
  <pattern id="hatch" width="7" height="7" patternUnits="userSpaceOnUse"
    patternTransform="rotate(45)">
    <line x1="0" y1="0" x2="0" y2="7" stroke="#141414" stroke-width="1.1"/>
  </pattern>
  <filter id="ink" x="-4%" y="-4%" width="108%" height="108%">
    <feTurbulence type="fractalNoise" baseFrequency="0.11" numOctaves="2"
      seed="7" result="n"/>
    <feDisplacementMap in="SourceGraphic" in2="n" scale="2.6"/>
  </filter>
  <marker id="focalhead" markerWidth="8" markerHeight="8" refX="6" refY="3"
    orient="auto"><path d="M0 0 L7 3 L0 6 Z" fill="#141414"/></marker>
</defs>
<rect width="1024" height="820" fill="#f7f2e7"/>
<g data-panel="0" data-orientation="horizontal">
<g data-panelimg="0"><rect x="14" y="14" width="322" height="650" fill="#ffffff"/><rect x="14" y="14" width="322" height="273" fill="url(#screentone)" opacity="0.45"/><rect x="26" y="303" width="52" height="325" fill="#141414"/><rect x="26" y="303" width="52" height="325" fill="url(#hatch)" opacity="0.3"/><rect x="26" y="303" width="52" height="325" fill="url(#screentone-dark)" opacity="0.45"/><rect x="239" y="394" width="64" height="234" fill="#141414"/><rect x="239" y="394" width="64" height="234" fill="url(#hatch)" opacity="0.3"/><rect x="239" y="394" width="64" height="234" fill="url(#screentone-dark)" opacity="0.45"/><path d="M14 211 Q 175 225 336 207" fill="none" stroke="#141414" stroke-width="1.4" opacity="0.6"/><path d="M14 270 Q 175 284 336 266" fill="none" stroke="#141414" stroke-width="1.4" opacity="0.6"/><path d="M14 628 L336 628" stroke="#141414" stroke-width="2.4"/><ellipse cx="175" cy="628" rx="52" ry="5" fill="#141414" opacity="0.3"/><circle cx="59" cy="636" r="9" fill="url(#screentone-dark)"/><g stroke="#141414" stroke-width="4"><circle cx="167.0" cy="367.2" r="22.8"/><line x1="167.0" y1="390.0" x2="167.0" y2="477.8"/><line x1="144" y1="394" x2="69" y2="485"/><line x1="189" y1="394" x2="264" y2="485"/><line x1="167.0" y1="477.8" x2="114.0" y2="624"/><line x1="167.0" y1="477.8" x2="218.0" y2="624"/></g></g>
<g data-beat="0" data-kind="setup" data-pose="standing-deadpan"><path data-focal="setup" d="M160 317 L204 287" stroke="#141414" stroke-width="3" fill="none" marker-end="url(#focalhead)"/><rect x="22" y="24" width="306" height="56" rx="3" fill="#ffffff" stroke="#141414" stroke-width="3"/><text font-family="Iosevka, monospace" font-size="14" fill="#141414"><tspan x="32" y="46">It was an ordinary day in the</tspan><tspan x="32" y="64">hall. That was the problem.</tspan></text></g>
<rect x="14" y="14" width="322" height="650" fill="none" stroke="#141414" stroke-width="5"/>
</g>
<g data-panel="1" data-orientation="horizontal">
<g data-panelimg="1"><rect x="350" y="14" width="322" height="650" fill="#ffffff"/><rect x="350" y="14" width="322" height="273" fill="url(#screentone)" opacity="0.45"/><rect x="362" y="303" width="52" height="325" fill="#141414"/><rect x="362" y="303" width="52" height="325" fill="url(#hatch)" opacity="0.3"/><rect x="362" y="303" width="52" height="325" fill="url(#screentone-dark)" opacity="0.45"/><rect x="575" y="394" width="64" height="234" fill="#141414"/><rect x="575" y="394" width="64" height="234" fill="url(#hatch)" opacity="0.3"/><rect x="575" y="394" width="64" height="234" fill="url(#screentone-dark)" opacity="0.45"/><path d="M350 211 Q 511 225 672 207" fill="none" stroke="#141414" stroke-width="1.4" opacity="0.6"/><path d="M350 270 Q 511 284 672 266" fill="none" stroke="#141414" stroke-width="1.4" opacity="0.6"/><path d="M350 628 L672 628" stroke="#141414" stroke-width="2.4"/><ellipse cx="511" cy="628" rx="52" ry="5" fill="#141414" opacity="0.3"/><rect x="382" y="339" width="26" height="12" fill="none" stroke="#a3282d" stroke-width="2" opacity="0.8"/><g stroke="#141414" stroke-width="4"><circle cx="492.6" cy="367.2" r="22.8"/><line x1="503.0" y1="390.0" x2="477.0" y2="477.8"/><line x1="480" y1="394" x2="405" y2="325"/><line x1="525" y1="394" x2="600" y2="325"/><line x1="503.0" y1="477.8" x2="451.0" y2="624"/><line x1="503.0" y1="477.8" x2="555.0" y2="624"/></g></g>
<g data-beat="1" data-kind="reaction" data-pose="reacting"><path data-focal="reaction" d="M522 317 L566 287" stroke="#141414" stroke-width="3" fill="none" marker-end="url(#focalhead)"/><ellipse cx="543" cy="105" rx="116" ry="49" fill="#ffffff" stroke="#141414" stroke-width="3"/><path class="tail" d="M508 153 Q540.6 250.8 540.6 250.8 Q540.6 250.8 503 347" fill="none" stroke="#141414" stroke-width="4" filter="url(#ink)"/><text text-anchor="middle" font-size="14" fill="#141414"><tspan x="543" y="97">The diagram was right.</tspan><tspan x="543" y="115">That is worse.</tspan></text><text data-sfx="KRAK" x="562.0" y="248.4" font-family="Averia Gruesa Libre, cursive" font-size="30" font-weight="bold" fill="#141414" stroke="#ffffff" stroke-width="6" paint-order="stroke" transform="rotate(-14 562.0 248.4)">KRAK</text></g>
<rect x="350" y="14" width="322" height="650" fill="none" stroke="#141414" stroke-width="5"/>
</g>
<g data-panel="2" data-orientation="horizontal">
<g data-panelimg="2"><rect x="686" y="14" width="322" height="650" fill="#ffffff"/><rect x="686" y="14" width="322" height="273" fill="url(#screentone)" opacity="0.45"/><rect x="698" y="303" width="52" height="325" fill="#141414"/><rect x="698" y="303" width="52" height="325" fill="url(#hatch)" opacity="0.3"/><rect x="698" y="303" width="52" height="325" fill="url(#screentone-dark)" opacity="0.45"/><rect x="911" y="394" width="64" height="234" fill="#141414"/><rect x="911" y="394" width="64" height="234" fill="url(#hatch)" opacity="0.3"/><rect x="911" y="394" width="64" height="234" fill="url(#screentone-dark)" opacity="0.45"/><path d="M686 211 Q 847 225 1008 207" fill="none" stroke="#141414" stroke-width="1.4" opacity="0.6"/><path d="M686 270 Q 847 284 1008 266" fill="none" stroke="#141414" stroke-width="1.4" opacity="0.6"/><path d="M686 628 L1008 628" stroke="#141414" stroke-width="2.4"/><ellipse cx="847" cy="628" rx="52" ry="5" fill="#141414" opacity="0.3"/><circle cx="731" cy="636" r="9" fill="url(#screentone-dark)"/><g stroke="#141414" stroke-width="4"><circle cx="839.0" cy="367.2" r="22.8"/><line x1="839.0" y1="390.0" x2="839.0" y2="477.8"/><line x1="816" y1="394" x2="754" y2="485"/><line x1="861" y1="394" x2="949" y2="370"/><line x1="839.0" y1="477.8" x2="788.0" y2="624"/><line x1="839.0" y1="477.8" x2="892.0" y2="624"/></g></g>
<g data-beat="2" data-kind="gag" data-pose="pointing"><path data-focal="gag" d="M755 317 L799 287" stroke="#141414" stroke-width="3" fill="none" marker-end="url(#focalhead)"/><ellipse cx="879" cy="105" rx="116" ry="49" fill="#ffffff" stroke="#141414" stroke-width="3"/><path class="tail" d="M844 153 Q876.6 250.8 876.6 250.8 Q876.6 250.8 839 347" fill="none" stroke="#141414" stroke-width="4" filter="url(#ink)"/><text text-anchor="middle" font-size="14" fill="#141414"><tspan x="879" y="97">I told you the paperwork</tspan><tspan x="879" y="115">was load-bearing!</tspan></text></g>
<rect x="686" y="14" width="322" height="650" fill="none" stroke="#141414" stroke-width="5"/>
</g>
<rect x="14" y="672" width="996" height="110" fill="#ffffff" stroke="#141414" stroke-width="4"/>
<text font-family="Iosevka, monospace" font-size="17" fill="#141414"><tspan x="28" y="700">Grounded event: Diplomatic Cooperation Bank Announces Peace Fund (severity NOTABLE). Source cited below.</tspan></text>
<text x="14" y="806" font-family="Iosevka, monospace" font-size="12" fill="#141414">[DRAMATIZATION - procedural gag, not a real quote] -- GDELT 2.0 export, https://example.com/news/1</text>
</svg>