<svg xmlns="http://www.w3.org/2000/svg" width="1024" height="820" viewBox="0 0 1024 820">
<defs>
  <pattern id="screentone" width="8" height="8" patternUnits="userSpaceOnUse">
    <circle cx="4" cy="4" r="1.3" fill="#141414"/></pattern>
  <pattern id="screentone-dark" width="6" height="6" patternUnits="userSpaceOnUse">
    <circle cx="3" cy="3" r="2.1" fill="#141414"/></pattern>
  <pattern id="hatch" width="7" height="7" patternUnits="userSpaceOnUse"
    patternTransform="rotate(45)">
    <line x1="0" y1="0" x2="0" y2="7" stroke="#141414" stroke-width="1.1"/>
  </pattern>
  <filter id="ink" x="-4%" y="-4%" width="108%" height="108%">
    <feTurbulence type="fractalNoise" baseFrequency="0.11" numOctaves="2"
      seed="7" result="n"/>
    <feDisplacementMap in="SourceGraphic" in2="n" scale="2.6"/>
  </filter>
  <marker id="focalhead" markerWidth="8" markerHeight="8" refX="6" refY="3"
    orient="auto"><path d="M0 0 L7 3 L0 6 Z" fill="#141414"/></marker>
</defs>
<rect width="1024" height="820" fill="#f7f2e7"/>
<g data-panel="0" data-orientation="grid-2x2" data-tone="page-wide mid-gray screentone texture, dense gray wash, low white ground">
<g data-panelimg="0"><rect x="14" y="14" width="491" height="318" fill="#ffffff"/><rect x="14" y="14" width="491" height="133" fill="url(#screentone)" opacity="0.45"/><rect x="26" y="137" width="79" height="159" fill="#141414"/><rect x="26" y="137" width="79" height="159" fill="url(#hatch)" opacity="0.3"/><rect x="26" y="137" width="79" height="159" fill="url(#screentone-dark)" opacity="0.45"/><rect x="358" y="182" width="98" height="114" fill="#141414"/><rect x="358" y="182" width="98" height="114" fill="url(#hatch)" opacity="0.3"/><rect x="358" y="182" width="98" height="114" fill="url(#screentone-dark)" opacity="0.45"/><path d="M14 111 Q 260 125 505 107" fill="none" stroke="#141414" stroke-width="1.4" opacity="0.6"/><path d="M14 140 Q 260 155 505 136" fill="none" stroke="#141414" stroke-width="1.4" opacity="0.6"/><path d="M14 296 L505 296" stroke="#141414" stroke-width="2.4"/><ellipse cx="260" cy="296" rx="79" ry="5" fill="#141414" opacity="0.3"/><circle cx="83" cy="304" r="9" fill="url(#screentone-dark)"/><g stroke="#141414" stroke-width="4"><circle cx="251.5" cy="166.4" r="11.1"/><line x1="251.5" y1="177.5" x2="251.5" y2="220.4"/><line x1="240" y1="181" x2="203" y2="228"/><line x1="262" y1="181" x2="299" y2="228"/><line x1="251.5" y1="220.4" x2="225.1" y2="292"/><line x1="251.5" y1="220.4" x2="275.9" y2="292"/></g></g>
<g data-beat="0" data-kind="setup" data-pose="standing-deadpan"><path data-focal="setup" d="M260 178 L304 148" stroke="#141414" stroke-width="3" fill="none" marker-end="url(#focalhead)"/><rect x="22" y="24" width="475" height="56" rx="3" fill="#ffffff" stroke="#141414" stroke-width="3"/><text font-family="Iosevka, monospace" font-size="14" fill="#141414"><tspan x="32" y="46">It was an ordinary day in the</tspan><tspan x="32" y="64">hall. That was the problem.</tspan></text></g>
<rect x="14" y="14" width="491" height="318" fill="none" stroke="#141414" stroke-width="5"/>
</g>
<g data-panel="1" data-orientation="grid-2x2" data-tone="page-wide mid-gray screentone texture, dense gray wash, low white ground">
<g data-panelimg="1"><rect x="519" y="14" width="491" height="318" fill="#ffffff"/><rect x="519" y="14" width="491" height="133" fill="url(#screentone)" opacity="0.45"/><rect x="531" y="137" width="79" height="159" fill="#141414"/><rect x="531" y="137" width="79" height="159" fill="url(#hatch)" opacity="0.3"/><rect x="531" y="137" width="79" height="159" fill="url(#screentone-dark)" opacity="0.45"/><rect x="863" y="182" width="98" height="114" fill="#141414"/><rect x="863" y="182" width="98" height="114" fill="url(#hatch)" opacity="0.3"/><rect x="863" y="182" width="98" height="114" fill="url(#screentone-dark)" opacity="0.45"/><path d="M519 111 Q 764 125 1010 107" fill="none" stroke="#141414" stroke-width="1.4" opacity="0.6"/><path d="M519 140 Q 764 155 1010 136" fill="none" stroke="#141414" stroke-width="1.4" opacity="0.6"/><path d="M519 296 L1010 296" stroke="#141414" stroke-width="2.4"/><ellipse cx="764" cy="296" rx="79" ry="5" fill="#141414" opacity="0.3"/><rect x="568" y="173" width="26" height="12" fill="none" stroke="#a3282d" stroke-width="2" opacity="0.8"/><g stroke="#141414" stroke-width="4"><circle cx="756.5" cy="226.7" r="5.8"/><line x1="756.5" y1="232.5" x2="756.5" y2="254.8"/><line x1="750" y1="236" x2="731" y2="262"/><line x1="762" y1="236" x2="781" y2="262"/><line x1="756.5" y1="254.8" x2="743.3" y2="292"/><line x1="756.5" y1="254.8" x2="769.7" y2="292"/></g></g>
<rect x="519" y="14" width="491" height="318" fill="none" stroke="#141414" stroke-width="5"/>
</g>
<g data-panel="2" data-orientation="grid-2x2" data-tone="flat white, clean white ground, vast negative space">
<g data-panelimg="2"><rect x="14" y="346" width="491" height="318" fill="#ffffff"/><rect x="14" y="346" width="491" height="133" fill="url(#screentone)" opacity="0.45"/><rect x="26" y="469" width="79" height="159" fill="#141414"/><rect x="26" y="469" width="79" height="159" fill="url(#hatch)" opacity="0.3"/><rect x="26" y="469" width="79" height="159" fill="url(#screentone-dark)" opacity="0.45"/><rect x="358" y="514" width="98" height="114" fill="#141414"/><rect x="358" y="514" width="98" height="114" fill="url(#hatch)" opacity="0.3"/><rect x="358" y="514" width="98" height="114" fill="url(#screentone-dark)" opacity="0.45"/><path d="M14 443 Q 260 457 505 439" fill="none" stroke="#141414" stroke-width="1.4" opacity="0.6"/><path d="M14 472 Q 260 487 505 468" fill="none" stroke="#141414" stroke-width="1.4" opacity="0.6"/><path d="M14 628 L505 628" stroke="#141414" stroke-width="2.4"/><ellipse cx="260" cy="628" rx="79" ry="5" fill="#141414" opacity="0.3"/><circle cx="83" cy="636" r="9" fill="url(#screentone-dark)"/><g stroke="#141414" stroke-width="4"><circle cx="246.4" cy="498.4" r="11.1"/><line x1="251.5" y1="509.5" x2="238.8" y2="552.5"/><line x1="240" y1="513" x2="203" y2="477"/><line x1="262" y1="513" x2="299" y2="477"/><line x1="251.5" y1="552.5" x2="227.1" y2="624"/><line x1="251.5" y1="552.5" x2="277.9" y2="624"/></g></g>
<g data-beat="1" data-kind="reaction" data-pose="reacting"><path data-focal="reaction" d="M142 510 L186 480" stroke="#141414" stroke-width="3" fill="none" marker-end="url(#focalhead)"/><ellipse cx="309" cy="391" rx="177" ry="24" fill="#ffffff" stroke="#141414" stroke-width="3"/><path class="tail" d="M255 414 Q266.9 451.6 266.9 451.6 Q266.9 451.6 251 488" fill="none" stroke="#141414" stroke-width="4" filter="url(#ink)"/><text text-anchor="middle" font-size="14" fill="#141414"><tspan x="309" y="383">The diagram was right.</tspan><tspan x="309" y="401">That is worse.</tspan></text><text data-sfx="KRAK" x="258.9" y="540.9" font-family="Averia Gruesa Libre, cursive" font-size="30" font-weight="bold" fill="#141414" stroke="#ffffff" stroke-width="6" paint-order="stroke" transform="rotate(-14 258.9 540.9)">KRAK</text></g>
<rect x="14" y="346" width="491" height="318" fill="none" stroke="#141414" stroke-width="5"/>
</g>
<g data-panel="3" data-orientation="grid-2x2" data-tone="flat white, clean white ground, vast negative space">
<g data-panelimg="3"><rect x="519" y="346" width="491" height="318" fill="#ffffff"/><rect x="519" y="346" width="491" height="133" fill="url(#screentone)" opacity="0.45"/><rect x="531" y="469" width="79" height="159" fill="#141414"/><rect x="531" y="469" width="79" height="159" fill="url(#hatch)" opacity="0.3"/><rect x="531" y="469" width="79" height="159" fill="url(#screentone-dark)" opacity="0.45"/><rect x="863" y="514" width="98" height="114" fill="#141414"/><rect x="863" y="514" width="98" height="114" fill="url(#hatch)" opacity="0.3"/><rect x="863" y="514" width="98" height="114" fill="url(#screentone-dark)" opacity="0.45"/><path d="M519 443 Q 764 457 1010 439" fill="none" stroke="#141414" stroke-width="1.4" opacity="0.6"/><path d="M519 472 Q 764 487 1010 468" fill="none" stroke="#141414" stroke-width="1.4" opacity="0.6"/><path d="M519 628 L1010 628" stroke="#141414" stroke-width="2.4"/><ellipse cx="764" cy="628" rx="79" ry="5" fill="#141414" opacity="0.3"/><rect x="568" y="505" width="26" height="12" fill="none" stroke="#a3282d" stroke-width="2" opacity="0.8"/><g stroke="#141414" stroke-width="4"><circle cx="756.5" cy="498.4" r="11.1"/><line x1="756.5" y1="509.5" x2="756.5" y2="552.5"/><line x1="745" y1="513" x2="715" y2="560"/><line x1="767" y1="513" x2="810" y2="499"/><line x1="756.5" y1="552.5" x2="733.1" y2="624"/><line x1="756.5" y1="552.5" x2="783.9" y2="624"/></g></g>
<g data-beat="2" data-kind="gag" data-pose="pointing"><path data-focal="gag" d="M686 510 L730 480" stroke="#141414" stroke-width="3" fill="none" marker-end="url(#focalhead)"/><ellipse cx="814" cy="391" rx="177" ry="24" fill="#ffffff" stroke="#141414" stroke-width="3"/><path class="tail" d="M760 414 Q771.9 451.6 771.9 451.6 Q771.9 451.6 756 488" fill="none" stroke="#141414" stroke-width="4" filter="url(#ink)"/><text text-anchor="middle" font-size="14" fill="#141414"><tspan x="814" y="383">I told you the paperwork</tspan><tspan x="814" y="401">was load-bearing!</tspan></text></g>
<rect x="519" y="346" width="491" height="318" fill="none" stroke="#141414" stroke-width="5"/>
</g>
<rect x="14" y="672" width="996" height="110" fill="#ffffff" stroke="#141414" stroke-width="4"/>
<text font-family="Iosevka, monospace" font-size="17" fill="#141414"><tspan x="28" y="700">Grounded event: Diplomatic Cooperation Bank Announces Peace Fund (severity NOTABLE). Source cited below.</tspan></text>
<text x="14" y="806" font-family="Iosevka, monospace" font-size="12" fill="#141414">[DRAMATIZATION - procedural gag, not a real quote] -- GDELT 2.0 export, https://example.com/news/1</text>
</svg>